<svg version="1" xmlns="http://www.w3.org/2000/svg" width="800" height="800" viewBox="0 0 600.000000 600.000000"><path d="M76 1.5C50 7.2 28.9 21.3 14.6 42.8 9 51.3 5.7 58.5 2.5 69.7L0 78.2v443.6l2.6 8.8c6.5 22.6 19.9 40.9 39.3 53.8 8.2 5.5 15.2 8.7 27 12.4l8.6 2.7h446l8.6-2.7c11.8-3.7 18.8-6.9 27.1-12.4 18.1-12.1 31-28.8 37.7-49l3.1-9.2V73.8l-3.1-9.2c-6.7-20.2-19.6-36.9-37.7-49-8.3-5.5-15.3-8.7-27.1-12.4L523.5.5 303 .3C117.2.2 81.5.4 76 1.5zm239.1 62.1c3 .9 9.5 3.7 14.4 6.2 7.1 3.6 10.8 6.4 17.6 13.2 7.3 7.3 9.3 10.1 14.1 19.7 8.7 17.2 15.1 39.4 16.9 58.8 3.6 37.2 7 92.1 6.5 104-.4 7.1-1.3 30.1-2.2 51-.8 21-2.1 41.8-2.9 46.5-2.5 14.2-5.6 39-5.1 39.8.3.5 4 .3 8.3-.4 4.3-.7 18.2-1.7 30.8-2.2 24.5-1.1 27.9-1.7 36-6.9 8.6-5.6 11.5-13.7 11.5-31.7 0-16.3-2.6-34.5-8.5-59.1-6.5-27.6-7.5-32.2-10.1-48.5-3.5-22.1-4.7-40.5-4.1-64l.5-19.5 4.1-11.8c7.3-21 16.5-38.2 21.8-40.6 5.3-2.4 18.9-5.1 26-5.1 13.3 0 24.7 3.7 25.9 8.5.3 1.4.9 2.5 1.3 2.5 1.5 0 6 9.8 8.2 17.5 4.9 17.8 5.8 27.2 6.3 61.5.3 17.9.9 42.2 1.5 54 .6 11.8 1 43.4 1.1 70.1 0 54.1-.4 58.5-6.4 75.2-4.5 12.5-6.5 16.2-12.8 24-11.6 14.5-29.8 24.1-52.3 27.7-3.8.6-12.3 1.9-18.8 2.9-6.5 1.1-12.9 2.6-14.2 3.5-1.3.9-3.1 1.6-3.9 1.6-1.4 0-10.8 3-29.1 9.4-5.5 1.9-15.4 5.9-22 8.9s-13 5.8-14.2 6.1c-3.3 1-5.7 5.7-9.8 19.1-3.8 12.2-5 15.7-10.3 30-2.9 7.9-3.7 10-7.3 20.4-1.1 3-2.7 6.6-3.7 8-.9 1.5-2.2 4.8-2.7 7.6-.9 4.5-1.3 5-3.9 5.3l-2.9.4.7-6.4c.4-3.5 2.9-17.4 5.7-30.9 2.7-13.5 4.9-26.1 4.9-28 0-1.9.9-5.4 2-7.8 1.1-2.4 2-5.4 2-6.8 0-1.3.4-3.2 1-4.2 3.3-6.3 21.9-118.2 23.9-144.1 3.1-40.1 4.2-76.7 3.1-104.6-1.3-33.6-3.5-64.7-5.5-76.7-.8-4.8-1.5-10.8-1.5-13.5-.1-5.5-.9-9.5-4.3-21.2-3.6-12.2-7.6-22.2-9.8-24.6-1-1.1-1.9-2.5-1.9-3.1 0-1.7-12.7-14.3-14.3-14.3-.8 0-3.4-1.5-5.8-3.4-5.8-4.4-9.7-5.6-18.4-5.6-14 0-22.7 4.6-29.9 15.8-10.3 16-11.8 25.9-11.9 81.2-.1 43.9 2.1 80.1 5.2 85.7.6 1 1.5 8.3 2 16.3 1.1 15 6.3 56.4 8.1 63.5.5 2.2 1 5.5 1 7.4 0 1.9.7 4.2 1.6 5.2 1.3 1.5 1.4 2.3.3 5.2-1 2.8-1 7.1 0 21.1.6 9.7 1.6 18.8 2.1 20.2 1.2 3.1.3 65.7-1.1 72.9-.5 2.7-1.4 9.5-1.9 15-1.3 12.1-8.3 46.8-11.7 58.5-1.4 4.7-3.4 11.9-4.3 16-2 8.5-6 18.4-8.3 20.8-1.5 1.4-1.7 1.3-2.6-1-.9-2.4-.3-6.7 2-14.4.5-1.7.9-3.9.9-5s.6-2.9 1.4-4c.8-1.1 1.7-3.8 2.1-6 .4-2.1 2-9.8 3.6-16.9 1.5-7.2 3.1-16.7 3.4-21.3.3-4.5 1-9.4 1.5-10.8.6-1.4 1-6.7 1-11.7 0-5.3.7-11.3 1.5-14.1 1.7-5.7 2.1-25.7.5-28.7-.8-1.4-.7-2.8.6-5.5 1.5-3.1 1.6-5.8 1.1-21.2-1.2-31.3-3.7-49.6-9-64.4-1.2-3.6-4.6-4.3-20.2-4.1-18.6.2-25 .7-26.8 2.1-.8.7-5.5 1.7-10.4 2.1-4.8.5-11.5 1.8-14.8 3-13.9 4.9-55.8 18.2-62.1 19.7-7.6 1.7-34.7 2.1-40.2.5-3-.9-4.4-1.8-12.3-8-6.5-5.1-10.4-17.7-11.4-36.6-.6-12.6-2.2-22.6-4.1-25.6-.3-.6-1.2-3.6-2-6.7-.7-3.2-2.2-9.3-3.3-13.7-1.1-4.4-2.5-10.3-3.1-13-.7-2.8-1.8-5.7-2.5-6.5-2.7-3.1-8.9-23.5-10.1-33.2-.3-2.9-1.3-7.6-2.1-10.3-2.4-7.8-3-39-.9-47.8.9-3.8 1.6-8 1.6-9.5s.7-4.1 1.6-5.7c.9-1.7 2.9-6.4 4.6-10.5 3.3-8.3 9.4-17.1 13.6-19.7 1.5-.9 5-3.1 7.7-4.9 6.3-4.2 13.5-5.8 24-5.2 10.3.5 16.6 3.4 25.8 11.8 5 4.6 6.9 7.2 8.1 10.8.8 2.6 2.6 7.9 4 11.8 2.9 8.2 4.6 23.2 4.6 41.9.1 39.1 5.7 66.1 16.1 78.1 2.1 2.5 3.9 5 3.9 5.5 0 .6 2.4 3.5 5.2 6.6C166 305 178 308.9 201 309.3c23.3.3 53.4-.3 54.8-1.1.9-.6 1-1.6.2-3.8-.5-1.6-1.6-7.6-2.4-13.4-.8-5.8-1.9-12.3-2.5-14.5-.6-2.2-1.5-11.7-2.1-21-.6-9.4-1.7-22-2.5-28-1.6-12.2-3.2-41.4-4-75-.4-15.9-.1-25.3.9-33.8 1.3-10.9 1.7-12.3 5.9-19.5 2.5-4.2 5.3-9.5 6.3-11.6 3.9-8.6 17.8-20.5 28.1-24.2 5.5-1.9 24.6-1.8 31.4.2z"/><path d="M480.2 131c-10.2 7.4-17.3 23.3-21.8 49.1-3.3 19.1.6 67.4 7.6 93.4 2.5 9.6 12.7 60.2 14 69.8 1.9 14.6.4 35.2-3.5 46.7-3.5 10.3-13.2 19.5-24.5 23-10.2 3.3-18.5 3.5-37.5 1-17.7-2.3-39.5-2.4-41.6-.3-.6.6-2 7.1-3 14.4-1.1 7.4-3.5 19.9-5.4 27.9-4.5 19.2-5 22-3.7 22 .6 0 8.2-3.4 16.9-7.6 15.1-7.3 36.2-15.4 39.9-15.4 1 0 7-1.8 13.3-3.9 6.4-2.2 18.9-5.6 27.7-7.5 30.8-6.9 36.5-10.1 48-27.3 7.9-11.8 9-14.2 11.5-25.3 2.1-8.9 2.2-11.8 2.1-45.5-.1-19.8-.6-43.2-1.2-52-.6-8.8-1.3-23.3-1.6-32.3-.3-11.9-.8-17.3-2-20-1.2-2.9-1.8-9.6-2.4-30.2-1.4-40.7-3.5-62.2-7.1-69.3-6.4-12.7-16.9-17.1-25.7-10.7zM75 150.2c-8.2 5-13.3 11.9-17.1 23.5-3.2 9.6-3.3 10.2-3.3 27.8 0 11.6.5 19.6 1.3 22.5.7 2.5 1.7 8.3 2.1 13 .4 4.7 2.6 15.7 5 24.5 9.1 34.6 10.9 42.5 12.5 55.5.9 7.4 2.3 18.9 3.1 25.5 2.6 21.2 4.2 24.5 14.3 28.5 14 5.4 37.5 2.9 65.3-7.1 20.9-7.5 29-9.5 48.9-12.5 15.6-2.2 20.3-2.6 30.7-2 6.7.3 14.5 1.1 17.3 1.7 7.3 1.6 8.2 1 7.5-5.4-1.6-13-2.8-21.5-3.7-25-.9-3.4-1.3-3.7-4.4-3.7-2 0-11.5 1.8-21.3 4-23.6 5.2-33.2 6.4-47.7 5.7-19.1-.9-29.2-5.1-43.3-18.1-6.5-6.1-15.7-19-19-26.6-3-7.2-8.1-26.6-9.7-37.3-.8-5.4-1.7-21.5-2-36-.3-14.4-1.1-29.1-1.6-32.7-2.5-16.3-13.6-29-25.2-29-3.1 0-5.8.9-9.7 3.2z"/></svg>